<svg width="18" height="18" viewBox="0 0 18 18" fill="none" xmlns="http://www.w3.org/2000/svg">
<path d="M14 10C13.4477 10 13.0128 10.4547 12.8761 10.9898C12.4345 12.7182 10.8641 14 9 14C6.79443 14 5 12.2056 5 10C5 7.79443 6.79443 6 9 6V7.95969C9 8.37894 9.48497 8.61203 9.81235 8.35012L13.512 5.39043C13.7622 5.19027 13.7622 4.80973 13.512 4.60957L9.81235 1.64988C9.48497 1.38797 9 1.62106 9 2.04031V4C5.69141 4 3 6.69141 3 10C3 13.3086 5.69141 16 9 16C11.9694 16 14.4417 13.8321 14.9174 10.9958C15.0087 10.4511 14.5523 10 14 10Z" fill="black"/>
</svg>
